<?xml version="1.0" standalone="no"?>
<!DOCTYPE svg PUBLIC "-//W3C//DTD SVG 20010904//EN"
 "http://www.w3.org/TR/2001/REC-SVG-20010904/DTD/svg10.dtd">
<svg version="1.0" xmlns="http://www.w3.org/2000/svg"
 width="263.000000pt" height="263.000000pt" viewBox="0 0 263.000000 263.000000"
 preserveAspectRatio="xMidYMid meet">
<metadata>
Created by potrace 1.11, written by Peter Selinger 2001-2013
</metadata>
<g transform="translate(0.000000,263.000000) scale(0.100000,-0.100000)"
fill="#000000" stroke="none">
<path d="M1250 2573 c-32 -3 -152 -19 -210 -30 -96 -17 -311 -109 -407 -174
-173 -117 -328 -286 -421 -459 -168 -310 -193 -702 -67 -1036 135 -358 454
-657 812 -759 272 -78 587 -63 833 38 131 54 265 136 354 217 71 65 81 75 132
135 194 228 296 507 296 810 0 153 -11 234 -53 370 -119 387 -425 699 -805
824 -137 45 -339 72 -464 64z m254 -153 c82 -13 228 -58 224 -70 -2 -4 -115
-123 -253 -264 -137 -141 -251 -260 -253 -266 -2 -6 25 -7 75 -4 159 12 300
-40 412 -153 115 -117 163 -238 157 -400 -2 -51 0 -93 3 -93 3 0 74 66 157
148 287 279 343 332 353 332 6 0 15 -18 21 -39 25 -95 33 -165 32 -306 -1
-167 -21 -272 -81 -416 -174 -418 -597 -695 -1049 -688 -131 2 -328 38 -320
58 2 5 112 120 246 256 133 136 242 251 242 256 0 5 -6 6 -12 4 -28 -10 -157
-12 -213 -4 -142 22 -306 144 -373 277 -57 115 -74 256 -46 372 4 17 -85 -66
-268 -249 -152 -150 -278 -269 -280 -265 -10 16 -57 188 -63 230 -10 68 -12
233 -4 319 35 347 269 683 594 852 116 60 245 104 340 115 73 9 298 8 359 -2z"/>
<path d="M1270 1678 c-73 -13 -164 -63 -214 -119 -149 -166 -143 -413 15 -569
107 -106 240 -138 412 -100 l57 13 0 119 c0 115 -5 133 -29 104 -21 -25 -111
-57 -154 -55 -108 6 -197 101 -197 209 0 110 97 209 205 210 40 0 136 -38 149
-59 18 -29 25 -3 22 82 -2 50 -4 104 -5 118 -1 22 -8 28 -43 38 -56 14 -162
19 -218 9z"/>
</g>
</svg>
